<svg id="Capa_1" enable-background="new 0 0 512 512" height="512" viewBox="0 0 512 512" width="512" xmlns="http://www.w3.org/2000/svg"><g><path d="m447.31 426.097c41.816-46.91 64.69-106.742 64.69-170.097s-22.874-123.187-64.69-170.097l-21.213-21.213c-46.91-41.816-106.742-64.69-170.097-64.69s-123.187 22.874-170.097 64.69l-21.213 21.213c-41.816 46.91-64.69 106.742-64.69 170.097s22.874 123.187 64.69 170.097l21.213 21.213c46.91 41.816 106.742 64.69 170.097 64.69s123.187-22.874 170.097-64.69z" fill="#ffb655"/><path d="m447.31 85.903-21.213-21.213c-46.91-41.816-106.742-64.69-170.097-64.69v512c63.355 0 123.187-22.874 170.097-64.69l21.213-21.213c41.816-46.91 64.69-106.742 64.69-170.097s-22.874-123.187-64.69-170.097z" fill="#ff8659"/><path d="m372.673 139.327c2.929 2.929 6.768 4.394 10.606 4.394s7.678-1.465 10.606-4.394l53.424-53.424c-3.316-3.72-6.737-7.37-10.29-10.923s-7.202-6.974-10.923-10.29l-53.424 53.424c-5.857 5.858-5.857 15.356.001 21.213z" fill="#ff6326"/><path d="m139.327 372.673c-5.857-5.857-15.355-5.857-21.213 0l-53.424 53.424c3.316 3.72 6.737 7.37 10.29 10.923s7.202 6.974 10.923 10.29l53.424-53.424c5.858-5.858 5.858-15.356 0-21.213z" fill="#ff8659"/><path d="m128.721 143.721c3.839 0 7.678-1.465 10.606-4.394 5.858-5.857 5.858-15.355 0-21.213l-53.424-53.424c-3.72 3.316-7.37 6.737-10.923 10.29s-6.974 7.202-10.29 10.923l53.424 53.424c2.929 2.929 6.768 4.394 10.607 4.394z" fill="#ff8659"/><path d="m447.31 426.097-53.424-53.424c-5.857-5.857-15.355-5.857-21.213 0s-5.858 15.355 0 21.213l53.424 53.424c3.72-3.316 7.37-6.737 10.923-10.29s6.973-7.203 10.29-10.923z" fill="#ff6326"/><circle cx="256" cy="256" fill="#fffce5" r="195"/><path d="m256 61v390c107.524 0 195-87.476 195-195s-87.476-195-195-195z" fill="#ffe1bb"/><path d="m451 256c0-107.524-87.476-195-195-195-.842 0-1.68.021-2.52.032-52.683 1.336-94.98 44.463-94.98 97.468 0 53.848 43.652 97.5 97.5 97.5s97.5 43.652 97.5 97.5c0 53.005-42.297 96.132-94.98 97.468 106.365-1.356 192.48-88.286 192.48-194.968z" fill="#6c5d58"/><path d="m256 61v195c53.848 0 97.5 43.652 97.5 97.5 0 53.005-42.297 96.132-94.98 97.468 106.365-1.356 192.48-88.286 192.48-194.968 0-107.524-87.476-195-195-195z" fill="#504541"/><g><path d="m256 196c20.677 0 37.5-16.822 37.5-37.5s-16.823-37.5-37.5-37.5-37.5 16.822-37.5 37.5 16.823 37.5 37.5 37.5z" fill="#fffce5"/><path d="m256 316c-20.677 0-37.5 16.822-37.5 37.5s16.823 37.5 37.5 37.5 37.5-16.822 37.5-37.5-16.823-37.5-37.5-37.5z" fill="#6c5d58"/></g><path d="m293.5 158.5c0-20.678-16.823-37.5-37.5-37.5v75c20.677 0 37.5-16.822 37.5-37.5z" fill="#ffe1bb"/><path d="m256 316v75c20.677 0 37.5-16.822 37.5-37.5s-16.823-37.5-37.5-37.5z" fill="#504541"/></g></svg>